/* XPM */
static char *result[] = {
/* columns rows colors chars-per-pixel */
"40 40 178 2 ",
"   c #01534C",
".  c #025650",
"X  c #0A5952",
"o  c #006158",
"O  c #397254",
"+  c #017066",
"@  c #007C71",
"#  c #266C66",
"$  c #26716B",
"%  c #397873",
"&  c #515C64",
"*  c #535F68",
"=  c #5A6167",
"-  c #5A646C",
";  c #5B6973",
":  c #646A70",
">  c #616E79",
",  c #65727D",
"<  c #00857A",
"1  c #37AD7C",
"2  c #528056",
"3  c #54B26E",
"4  c #59B36D",
"5  c #42AF77",
"6  c #66B566",
"7  c #72B761",
"8  c #FFD01E",
"9  c #C0C53C",
"0  c #D2C833",
"q  c #D9C931",
"w  c #EECD27",
"e  c #87BB57",
"r  c #92BD52",
"t  c #AFC244",
"y  c #B3C342",
"u  c #6B7985",
"i  c #6E7E8A",
"p  c #747F88",
"a  c #009185",
"s  c #009D91",
"d  c #14A78D",
"f  c #19A88B",
"g  c #01A496",
"h  c #0CA691",
"j  c #01A498",
"k  c #09A79A",
"l  c #0CA89B",
"z  c #1FAB94",
"x  c #14AB9C",
"c  c #1BAE9D",
"v  c #23AA87",
"b  c #30AC80",
"n  c #32AB9B",
"m  c #24B09E",
"M  c #29B29D",
"N  c #16ACA0",
"B  c #1DAEA3",
"V  c #1FB0A4",
"C  c #20AFA3",
"Z  c #23B1A6",
"A  c #2BB4A8",
"S  c #36B8A2",
"D  c #33B7AC",
"F  c #3BB9AF",
"G  c #3CBAB0",
"H  c #7B8186",
"J  c #72818E",
"K  c #748592",
"L  c #7A8690",
"P  c #778896",
"I  c #788997",
"U  c #7B8C9A",
"Y  c #6D9D99",
"T  c #7F92A0",
"R  c #41BCA5",
"E  c #53B7AF",
"W  c #45BDB3",
"Q  c #4BBFB6",
"!  c #55C3A9",
"~  c #5CC6AA",
"^  c #4DC0B6",
"/  c #55C3B4",
"(  c #53C2B9",
")  c #5BC4BC",
"_  c #64C9AC",
"`  c #6ECDAE",
"'  c #70CEAF",
"]  c #65C9B3",
"[  c #62C7BF",
"{  c #71CEB0",
"}  c #77D0B3",
"|  c #7CD2B6",
" . c #66C8C0",
".. c #6BCAC2",
"X. c #74CDC6",
"o. c #7CD1C9",
"O. c #8A8E91",
"+. c #81929F",
"@. c #8C949A",
"#. c #939699",
"$. c #8295A4",
"%. c #8498A7",
"&. c #8C99A4",
"*. c #879BAA",
"=. c #899CAB",
"-. c #9B9EA1",
";. c #87A9AB",
":. c #9EA1A4",
">. c #93A2AE",
",. c #9BA3AB",
"<. c #92A4B2",
"1. c #99A7B2",
"2. c #9AA9B6",
"3. c #9BABB8",
"4. c #99BBBB",
"5. c #A5A7AA",
"6. c #A9ACAD",
"7. c #A6ABB0",
"8. c #A1AFBB",
"9. c #AFB1B2",
"0. c #A6B2BC",
"q. c #B6BBBD",
"w. c #B8BBBD",
"e. c #81D4BA",
"r. c #8CD8BF",
"t. c #FFEC9E",
"y. c #C4C9B0",
"u. c #F6E9AF",
"i. c #FFF1AC",
"p. c #FFF0B3",
"a. c #AAB7C2",
"s. c #B4BDC4",
"d. c #B1BEC9",
"f. c #85D3CD",
"g. c #8AD5CF",
"h. c #95DAC4",
"j. c #9CDDC8",
"k. c #8ED7D0",
"l. c #93D7D2",
"z. c #91D8D1",
"x. c #9CDCD6",
"c. c #ABC5C3",
"v. c #BDC5CC",
"b. c #B8C8C9",
"n. c #A2DFCB",
"m. c #AADEDA",
"M. c #A9E2CF",
"N. c #ACE3D1",
"B. c #A8E0DB",
"V. c #B5E5D5",
"C. c #B4E3DF",
"Z. c #BBE5DE",
"A. c #BDE9DA",
"S. c #BAE4E1",
"D. c #CFCDC6",
"F. c #D4DAC1",
"G. c #C3CCD3",
"H. c #C5D4D6",
"J. c #CDD6D6",
"K. c #CBD4DA",
"L. c #D2DADC",
"P. c #E2DCC3",
"I. c #C3EBDE",
"U. c #D1E2DE",
"Y. c #FFF6C9",
"T. c #D5DEE2",
"R. c #C9E5E4",
"E. c #CCEDE2",
"W. c #D4E2E3",
"Q. c #DBE4E5",
"!. c #DAE8E6",
"~. c #D7F1E9",
"^. c #E4EBED",
"/. c #E2F2EE",
"(. c #FAF5E5",
"). c #E8F7F2",
"_. c #EEF9F6",
"`. c #F6FCFA",
/* pixels */
"*.*.*.*.*.*.*.*.*.*.*.*.=.*.*.*.*.*.*.*.=.=.*.*.*.*.*.*.*.*.*.*.*.*.*.*.*.*.*.*.",
"*.*.*.*.*.*.*.*.*.*.*.*.*.*.*.*.*.*.*.*.%.=.%.=.*.*.*.*.*.*.*.*.*.*.*.*.*.*.*.*.",
"*.*.*.*.*.*.*.*.*.*.*.*.*.*.*.*.*.<.3.a.a.8.<.=.*.=.=.*.*.*.*.*.*.*.*.*.*.*.=.*.",
"*.*.*.*.*.*.*.*.*.*.*.*.*.*.=.8.K.^././././.^.K.8.=.*.*.*.*.*.*.=.*.*.*.*.*.*.*.",
"*.*.*.=.*.*.*.*.*.*.=.=.*.<.K./.R.j.e.| } | h.A./.J.>.*.*.*.*.*.*.*.*.*.*.*.*.*.",
"*.*.*.*.*.*.*.*.*.*.*.%.2.Q.E.h.r.| ` ` ` ' ` ` e.I.Q.1.%.*.*.*.*.*.*.*.*.*.*.*.",
"*.*.*.*.*.*.*.*.=.=.*.2.^.V.j.V.h.` ` ` ` ` ` ` ` ' N.!.>.%.=.*.*.*.=.*.*.*.*.*.",
"=.=.*.*.*.*.=.*.=.=.=.L.A.V.E.e._ ` ` ` ` ` ' ` ` ' ' N.L.$.*.*.*.*.*.*.*.*.*.*.",
"=.*.*.*.*.*.*.*.*.*.v.R.V.~.e.` ` ' ` ` ` ` ` ' ` ` ` ' I.b.+.*.*.*.*.*.*.*.*.=.",
"=.*.*.*.*.*.*.*.*.2.!.N.).h.' ' ` ` ` ` ` ` ` ` ` ` ` ` | W.&.$.*.*.*.*.*.*.*.*.",
"*.*.*.*.*.*.*.*.;.v.R.~.E.` ` ` ` ` ` ` ` ` ` ` ` ` ` ` ` M.v.U *.*.*.*.*.*.*.*.",
"*.*.=.*.*.*.*.*.<.!.N._.h.` ` ` ` ` ` ` ' ` ` ` ' ` ` ` ` | U.@.%.*.*.*.*.*.*.*.",
"*.*.*.*.*.=.=.a.W.S.I.~.| ` ` ` ` ` ' ` ' ` ` ` ` ` ' ` ` ` M.W.d.*.*.*.*.*.*.*.",
"*.*.*.*.%.<.K.E.../ /.I.` ` ` ` ` ` ` ` ` ` ` ` ` ` ` ` ` ' ! Q S.L.1.$.*.*.*.*.",
"*.*.*.%.2.W.x.Z g ] `.N.` ` ` ` ' ` ` ` ` ` ` ` ` ` ` ` ' ' _ g l o.W.2.%.*.*.*.",
"*.=.%.<.T.f.k j l e.`.j.` ` ` ` ` ` ` ` ` ` ` ' ` ` ` ` ' ' _ x j j ) W.-.%.*.*.",
"*.*.*.H.x.l g j l h.`.h.` ` ` ` ` ` ` ` ` ` ` ` ' ` ` ` ' ` _ c g g j ..H.+.;.*.",
"*.*.3.R.F k g g l | `.h.` ` ` ` ` ` ` ` ` ` ` ` ` ` ` ` ` ' ` c h d g k m.,.+.*.",
"*.*.v.g.W h e r h S n.h.` ` ` ` ` ` ' ` ' ` ` ` ` ` ` ` ' ' R g 7 y d j ( s.I *.",
"*.*.K.) [ z 0 q d j R ` ` ` ` ` ` ` ` ` ` ` ` ' ` ` ` ' ' R k h t w v j A b.J *.",
"*.=.K.^ o.A 3 4 j j j M ! ` ` ` ' ` ` ` ` ` ' ' ' { { _ S k g g 1 3 k g Z b.u *.",
"*.*.K.( [ ..k j j j j h k m R ! _ _ _ ` ` ` _ _ ~ R S x d j g j j j g g F q., *.",
"=.%.d.l.A k.) k j j v t 3 j j j l x c m c c x x l g j 1 9 5 j g j j V l o.#.u *.",
"=.*.>.R.F W z...B j 5 8 r j j g g g g 7 e h g g j g j 6 8 6 s g l G Z A H.: I *.",
"*.*.%.0.S.C F g.g.Q M 7 1 j j j j j f q w 1 j g g j j f 6 f l D ) A x B.#.; *.*.",
"*.*.*.%.v.C.A C  .l.f.) A l j j g g g r t d j g g g j l Z Q ..( x B B.6.& U *.*.",
"*.*.*.*.+.s.R.( l Z ) f.l.f...( F A Z m M B Z A F Q [ X.X.Q B k ( R.,.& J *.*.*.",
"*.*.*.*.*.U -.L.m.W l x D ( ..o.g.g.g.f.f.f.f.o.X.[ Q A l l W m.J.H = J *.*.*.*.",
"*.*.*.*.*.*.U L 7.L.S.E a s j l x Z Z A A Z B N k g s a n Z.L.-.- ; U *.*.*.=.*.",
"*.*.*.*.*.*.*.%.P p -.K.b o + @ < < a a a a < < @ + o $ G.#.* - J %.*.=.*.*.*.*.",
"*.*.*.*.*.*.*.*.*.$.P 1.G.*       . . .   .         # c.#.& L %.*.*.*.*.*.*.*.*.",
"*.*.*.*.*.*.*.*.*.*.=.T a.F.2                     O y.5.& I =.*.*.*.*.*.*.*.*.*.",
"*.*.*.*.*.*.*.*.*.*.*.*.3.p.u.4.% X         . $ ;.u.t.@.i =.=.*.*.=.%.=.*.*.*.*.",
"*.*.*.*.*.*.*.=.*.*.*.*.d.p.P.7.J.b.;.Y Y ;.c.J.9.D.i.9.J =.=.*.*.*.*.*.*.*.*.*.",
"*.*.*.*.*.*.*.*.*.*.*.*.G.Y.5.& p @.6.q.q.6.O.: & 1.Y.D.J *.*.*.*.*.*.*.*.*.=.*.",
"*.*.*.*.*.*.*.*.*.*.*.*.L.(.H J $.P u , ; > , K $.<.(.J.p *.*.*.*.=.*.*.*.*.*.*.",
"*.*.*.*.*.*.*.*.*.*.*.*.q.w.; +.=.*.*.*.%.*.*.*.*.*.v.:., *.*.*.*.*.*.=.*.*.*.*.",
"*.*.*.*.*.*.*.*.*.*.*.*.T , i *.*.*.*.*.*.*.*.*.*.*.U > K *.*.*.*.*.*.*.*.*.*.*.",
"*.*.*.*.*.*.*.*.*.*.*.*.*.*.*.=.*.*.*.*.*.*.*.*.*.=.*.*.*.*.*.*.*.*.*.*.*.*.*.*.",
"*.*.*.*.*.*.*.*.*.*.*.*.*.*.*.*.*.*.*.*.*.*.*.*.*.*.*.*.*.*.*.*.*.*.*.*.*.*.*.*."
};
