/* XPM */
static char *_8354_187256c8e3e7efb404295878f731b59889233e9196ceda155f73b447d3123659[] = {
/* columns rows colors chars-per-pixel */
"40 40 150 2 ",
"   c #889BAA",
".  c #889CAB",
"X  c #899CAC",
"o  c #899CAB",
"O  c #8294A2",
"+  c #778895",
"@  c #778794",
"#  c #7F919F",
"$  c #738390",
"%  c #2C3238",
"&  c #131518",
"*  c #121418",
"=  c #24292E",
"-  c #6A7884",
";  c #8395A3",
":  c #31373E",
">  c black",
",  c #23272C",
"<  c #7C8D9B",
"1  c #687782",
"2  c #0B0D10",
"3  c #121315",
"4  c #474B51",
"5  c #4E5359",
"6  c #4E5258",
"7  c #4E5358",
"8  c #4B4F55",
"9  c #1A1C1F",
"0  c #050508",
"q  c #57626C",
"w  c #535E68",
"e  c #020305",
"r  c #666C74",
"t  c #D0DDEC",
"y  c #D1DEED",
"u  c #D1DEEC",
"i  c #D3E0EE",
"p  c #808791",
"a  c #040406",
"s  c #3E464E",
"d  c #4D5760",
"f  c #040507",
"g  c #89919B",
"h  c #D7E4F3",
"j  c #D3E0EF",
"k  c #D6E3F3",
"l  c #A2ACB7",
"z  c #0A0B0D",
"x  c #373E45",
"c  c #4C5760",
"v  c #050507",
"b  c #8A929D",
"n  c #D6E3F2",
"m  c #A3ADB9",
"M  c #0B0C0E",
"N  c #363E45",
"B  c #D4E1F0",
"V  c #CBD7E5",
"C  c #C4D0DC",
"Z  c #C4D0DD",
"A  c #C5D0DD",
"S  c #CEDAE9",
"D  c #D3E0F0",
"F  c #CCD9E7",
"G  c #AFB8C1",
"H  c #A7AFB7",
"J  c #A8B0B8",
"K  c #A7B0B8",
"L  c #B5BFC9",
"P  c #D1DDEC",
"I  c #B6C0CA",
"U  c #A6AEB6",
"Y  c #BDC7D3",
"T  c #D3DFEE",
"R  c #BEC9D5",
"E  c #A9B2BA",
"W  c #C5D1DE",
"Q  c #C6D1DE",
"!  c #A6AEB5",
"~  c #AEB7C0",
"^  c #CCD8E6",
"/  c #D2DFEE",
"(  c #C4CFDC",
")  c #BCC7D2",
"_  c #BDC7D2",
"`  c #C8D4E2",
"'  c #C0CCD8",
"]  c #C1CCD8",
"[  c #CCD8E7",
"{  c #CBD7E4",
"}  c #ADB6BF",
"|  c #B3BCC6",
" . c #CFDCEB",
".. c #D0DCEB",
"X. c #B3BDC7",
"o. c #BAC5D0",
"O. c #BCC6D2",
"+. c #A8B1B9",
"@. c #C3CEDB",
"#. c #A9B1B9",
"$. c #A6AFB7",
"%. c #ACB5BE",
"&. c #CAD6E4",
"*. c #C6D2DF",
"=. c #C0CBD7",
"-. c #C0CBD8",
";. c #CAD6E3",
":. c #D4E0F0",
">. c #C7D3E1",
",. c #BFCAD6",
"<. c #BFCAD7",
"1. c #CBD8E6",
"2. c #ADB5BE",
"3. c #A6AEB7",
"4. c #B2BBC5",
"5. c #CFDBEA",
"6. c #CFDCEA",
"7. c #B2BCC6",
"8. c #B9C3CF",
"9. c #BBC5D1",
"0. c #A8B0B9",
"q. c #C2CDDA",
"w. c #C9D5E2",
"e. c #8A939D",
"r. c #040407",
"t. c #A2ACB8",
"y. c #656B72",
"u. c #D4E1EF",
"i. c #3F474F",
"p. c #687682",
"a. c #0B0C0F",
"s. c #111215",
"d. c #4F5359",
"f. c #4B5055",
"g. c #1A1B1F",
"h. c #58646E",
"j. c #8294A3",
"k. c #30363D",
"l. c #000002",
"z. c #000001",
"x. c #22272B",
"c. c #7B8C99",
"v. c #8A9DAC",
"b. c #697782",
"n. c #0E1012",
"m. c #010103",
"M. c #020204",
"N. c #07080A",
"B. c #5B6872",
"V. c white",
/* pixels */
"    . X X X X X X X X X X X X X X X X X X X X X X X X X X X X X X X X X X o     ",
"  o O + @ @ @ @ @ @ @ @ @ @ @ @ @ @ @ @ @ @ @ @ @ @ @ @ @ @ @ @ @ @ @ @ @ # o   ",
"o $ % & & & & & & & & & & & & & & & & & & & & & & & & & & & & & & & & & * = - o ",
"; : > > > > > > > > > > > > > > > > > > > > > > > > > > > > > > > > > > > > , < ",
"1 2 3 4 5 6 6 6 6 6 6 6 6 6 6 6 6 6 6 6 6 6 6 6 6 6 6 6 6 6 6 6 6 6 6 7 8 9 0 q ",
"w e r t y u u u u u u u u u u u u u u u u u u u u u u u u u u u u u u y i p a s ",
"d f g h j j j j j j j j j j j j j j j j j j j j j j j j j j j j j j j j k l z x ",
"c v b h j j j j j j j j j j j j j j j j j j j j j j j j j j j j j j j j n m M N ",
"c f b h j j j j j B B B B B B B B B B B B B B B B B B B B B B j j j j j n m M x ",
"c f b h j j j j V C Z Z Z Z A Z Z Z Z Z Z Z Z Z Z Z A Z Z Z A S j j j j n m M N ",
"c f b h j j D F G H J J K K J J K K K K K J J K J J J K K K H L t j j j n m M N ",
"c f b h j j P I U H H H H H H H H H H H H H H H H H H H H H H H Y T j j n m M N ",
"c f b h j j R H H H H H H H H H H H H H H H H H H H H H H H H H E W B j n m M N ",
"c f b h j Q E U U U U U U U U U U U U U U U U U U U U U U U U U ! ~ ^ j n m M N ",
"c f b h / ( ) Y Y Y Y Y Y Y Y Y Y Y Y Y Y Y Y Y Y Y Y Y Y Y Y Y Y _ ` j n m M N ",
"c f b h j j D D D D D D D D D D D D D D D D D D D D D D D D D D D D j j n m M N ",
"c f b h j j j j j j j j j j j j j j j j j j j j j j j j j j j j j j j j n m M N ",
"c f b h j j j j D B B B B B B B B B B B B B B B B B B B B B B j j j j j n m M N ",
"c f b h j j j j ` ' ] ] ] ] ] ] ] ] ] ] ] ] ] ] ] ] ] ] ] ] ] [ j j j j n m M N ",
"c f b h j j B { } U H H H H H H H H H H H H H H H H H H H H U |  .j j j n m M N ",
"c f b h j j ..X.U H H H H H H H H H H H H H H H H H H H H H H H o./ j j n m M N ",
"c f b h j / O.H H H H H H H H H H H H H H H H H H H H H H H H H +.@.j j n m M N ",
"c f b h j ( #.U $.$.$.$.$.$.$.$.$.$.$.$.$.$.$.$.$.$.$.$.$.$.$.$.U %.&.j n m M N ",
"c f b h / *.=.-.-.-.-.-.-.-.-.-.-.-.-.-.-.-.-.-.-.-.-.-.-.-.-.-.-.=.;.j n m M N ",
"c f b h j j B B B B B B B B B B B B B B B B B B B B B B B B B B B B j j n m M N ",
"c f b h j j j j j j j j j j j j j j j j j j j j j j j j j j j j j j j j n m M N ",
"c f b h j j j j j B :.:.B B B B :.:.B B B :.:.B B B :.:.B B B j j j j j n m M N ",
"c f b h j j j j >.,.,.<.<.<.<.<.,.,.<.<.<.,.<.<.<.<.<.,.,.<.=.1.j j j j n m M N ",
"c f b h j j B &.2.U U U U U U U U U U U U 3.U U U U U U U U U 4.5.j j j n m M N ",
"c f b h j j 6.7.U H H H H H H H H H H H H H H H H H H H H H H H 8./ j j n m M N ",
"c f b h j / 9.H H H H H H H H H H H H H H H H H H H H H H H H H 0.q.j j n m M N ",
"c f b h j ( E H H H H H H H H H H H H H H H H H H H H H H H H H H } &.j n m M N ",
"c f b h j w.( ( ( ( ( ( ( ( ( ( ( ( ( ( ( ( ( ( ( ( ( ( ( ( ( ( ( ( 1.j n m M N ",
"c f b h j D B B B B B B B B B B B B B B B B B B B B B B B B B B B B j j n m M N ",
"c f e.h j j j j j j j j j j j j j j j j j j j j j j j j j j j j j j j j n m M N ",
"c r.g h j j j j j j j j j j j j j j j j j j j j j j j j j j j j j j j j k t.z x ",
"w e y.y T / / / / / / / / / / / / / / / / / / / / / / / / / / / / / / / u.p a i.",
"p.a.s.4 d.5 5 5 5 5 5 5 5 5 5 5 5 5 5 5 5 5 5 5 5 5 5 5 5 5 5 5 5 5 5 5 f.g.0 h.",
"j.k.l.> > > > > > > > > > > > > > > > > > > > > > > > > > > > > > > > > > z.x.c.",
"v.b.n.m.M.M.M.M.M.M.M.M.M.M.M.M.M.M.M.M.M.M.M.M.M.M.M.M.M.M.M.M.M.M.M.M.M.N.B.v."
};
