/* XPM */
static char *_385_e2f2dadd4a7d3547747aabdc77f6c60368ad8924b56e80a2991f9fad5e520f23[] = {
/* columns rows colors chars-per-pixel */
"40 40 85 1 ",
"  c #010102",
". c #050608",
"X c #0A0B0D",
"o c #0D0E11",
"O c #0F1114",
"+ c #111215",
"@ c #131519",
"# c #17191D",
"$ c #181A1D",
"% c #1B1D21",
"& c #1F2023",
"* c #222326",
"= c #21252A",
"- c #24292E",
"; c #272C31",
": c #282D33",
"> c #333539",
", c #35393D",
"< c #3A3A3F",
"1 c #353C43",
"2 c #3C3F44",
"3 c #3C444C",
"4 c #414347",
"5 c #43474D",
"6 c #44484D",
"7 c #414A52",
"8 c #494C51",
"9 c #4C565F",
"0 c #52555A",
"q c #545960",
"w c #5A5D63",
"e c #5D6267",
"r c #55616B",
"t c #5B636B",
"y c #5A6671",
"u c #5C6974",
"i c #62676D",
"p c #63686D",
"a c #616E79",
"s c #6D7276",
"d c #63717C",
"f c #6F7478",
"g c #71757A",
"h c #73797F",
"j c #677581",
"k c #6E7D89",
"l c #747A81",
"z c #797E84",
"x c #71818E",
"c c #7E8389",
"v c #758592",
"b c #7F909E",
"n c #81878D",
"m c #838A8F",
"M c #878E94",
"N c #8A9097",
"B c #8C9399",
"V c #91989E",
"C c #8395A4",
"Z c #8598A6",
"A c #889BAB",
"S c #949CA3",
"D c #989FA7",
"F c #9CA3AB",
"G c #A0A7AF",
"H c #A7AFB7",
"J c #A7AFB8",
"K c #A6B0BC",
"L c #AAB2BA",
"P c #AEB7C1",
"I c #AFB9C3",
"U c #B1BBC5",
"Y c #B7C1CD",
"T c #B9C3CE",
"R c #BAC5D1",
"E c #C3CEDB",
"W c #C5D1DE",
"Q c #C7D3E0",
"! c #CAD6E4",
"~ c #CCD8E6",
"^ c #CEDBE9",
"/ c #D1DDEC",
"( c #D3E0EF",
") c #D5E2F1",
"_ c #D8E5F4",
/* pixels */
"AAAAx1::::::::;;;;::::::::;::;;:::9ZAAAA",
"AAAb;X$$$#$$$##%%##%%%#$$$%%%##%%@XrAAZA",
"AAAjocRTRTTRYRUYRUURRURURURURUURRI>:ZAAA",
"AAAaOK_)))))))___(__))_)))___))_))q=CAAA",
"AAAaOK_/)(//////////////////())(()9-ZZAA",
"AAAaOK))/!UUIIIUIIIIIIIIIIIIIW((()q&bAAA",
"AAAa+K_)!IHHHHHHJLHHHHHHHHHHJPE)))q-ZAAA",
"AAAa+K)~ULLLLLKKKKLLLLLLLLKKJJPQ))q-bAAZ",
"AAAaOK)^!!!!!!!!!!!!!!!!!!!!!!!~()q&ZAAA",
"AAAaoK))))))()_())))))))))))))))()q&ZAAA",
"AAAjOP)))^WEEEEEEEEEEEEEEEEEE//)()q-bAAA",
"AAAaOP))/RPJJJJJHJHHHHHLHLHHLU/)()q&ZAAA",
"AAAa@P)/RJJJJJJJHHHHHHHHHHLLHLU/))q-CAAZ",
"AAAaOJ)!RURUYURUURRURUURURUUURUQ/)q&CAAA",
"AAAaOJ))))())((((()))(()_)))((_)))q-CAAA",
"AAAa+P))))//(/(^/(/(///(/////(()/(q&CAAA",
"AAAaOK))(~YIUUIYUUUUUUUUUUUUU!(())q=CAAA",
"AAAa@K))~IHHHHHHHHHHHHHHHKHHJLW(/)q=CAZA",
"AAAd+K_~YHLLHLLLLJLLLLLLLLLLLLP!))q=CAAA",
"AAAa+K)^!W!!!!W!!!!!Q!!!!!!Q!!!~/)q=CAAA",
"AAAaOK_)(((((((()(((((((((((()))()q=CAAZ",
"AAAdoS(^(^((//(//////////////^/^/!5-CAAA",
"AAAv$*6666666666566666666656656662X7AAAA",
"AAAA9                             %vAAAA",
"AAAk%............................ X5ZAAA",
"AAA7X6hlhchhlhllllllhhhclhllllllh0-oxAAA",
"AAC-*hHHLLLLLLLLLLLLLLLLLLLLLLLLHhpXtAAA",
"AAvO8sDHHLHHHHHHHHHHHHHHHHHJLHHHFfn&3AAA",
"AApohgBLLHHHLHHHHHHHHHHHJJJJHHHLVsD2&CAA",
"AA7$VhnHHHHHHHHHHHHHHHHHHJJJHHHHNgHe+vAA",
"AC-,HnlHHHHHHHHHHHLHHHJHHHHJHHHHnhLvoyAA",
"Av+wHNfFHLHHHHLHHHHHHHHHHJHHHHHHlcLD%3AA",
"AdocLSsSLHHHHJJJHHHLHHHHHHHHHLHGgMHH2&CA",
"A7$DLFfNJHHHJJHJHHHHHHHHHLHHHHLDsSHLe+vA",
"Z;>HHHlnHHHHHJHJLHHHHHHHHHHHHHLVsDHLcouA",
"v@0JHHnlHHHHHHHHHHHHHHLHHHLHHHHMgGHJD%3A",
"uocLHLBsFLHHHLHHLLLHHHHLHHLLHHHczHLLH,-C",
"3@DLLLFsDLLLLLLLLKLLLLLKLLLKLLHzmLLKLw+v",
"1+0piie40pppppppppppppppppiippe40iiip<Ok",
"a+                                    ,C"
};
