/* XPM */
static char *result[] = {
/* columns rows colors chars-per-pixel */
"40 40 154 2 ",
"   c #030001",
".  c #0B0303",
"X  c #090708",
"o  c #060A0B",
"O  c #0B0B0B",
"+  c #140101",
"@  c #1B0101",
"#  c #130B0C",
"$  c #0B0F11",
"%  c #0D1314",
"&  c #111214",
"*  c #101618",
"=  c #151B1D",
"-  c #191C1F",
";  c #230101",
":  c #2C0101",
">  c #330101",
",  c #3C0101",
"<  c #291415",
"1  c #351A1A",
"2  c #151D20",
"3  c #152124",
"4  c #1D2224",
"5  c #1C292D",
"6  c #1F2D31",
"7  c #212424",
"8  c #22262A",
"9  c #23292D",
"0  c #292C2D",
"q  c #3F272A",
"w  c #3B2C2F",
"e  c #242E32",
"r  c #292E33",
"t  c #2B3136",
"y  c #2E363B",
"u  c #2B383E",
"i  c #323232",
"p  c #393B3B",
"a  c #430100",
"s  c #4B0100",
"d  c #540101",
"f  c #5B0101",
"g  c #520E0F",
"h  c #5A0C0C",
"j  c #4E0F10",
"k  c #401517",
"l  c #4E1314",
"z  c #45191A",
"x  c #5B1415",
"c  c #630101",
"v  c #6C0102",
"b  c #740101",
"n  c #7C0101",
"m  c #751011",
"M  c #42282B",
"N  c #443438",
"B  c #2E3F45",
"V  c #323C42",
"C  c #2D4248",
"Z  c #374147",
"A  c #35474E",
"S  c #3B444A",
"D  c #364950",
"F  c #3B4C53",
"G  c #3D555D",
"H  c #434248",
"J  c #4A4349",
"K  c #484A4B",
"L  c #424E55",
"P  c #4A4B51",
"I  c #435057",
"U  c #46535B",
"Y  c #4A555C",
"T  c #435D65",
"R  c #4E5B64",
"E  c #545C64",
"W  c #535F68",
"Q  c #47616A",
"!  c #49636C",
"~  c #5F6262",
"^  c #56636C",
"/  c #59656E",
"(  c #4E6C75",
")  c #5C6B75",
"_  c #516F79",
"`  c #5F6D78",
"'  c #646666",
"]  c #63696C",
"[  c #606F79",
"{  c #63727D",
"}  c #737676",
"|  c #830102",
" . c #8B0102",
".. c #940102",
"X. c #990203",
"o. c #A30102",
"O. c #AB0102",
"+. c #B30101",
"@. c #BC0202",
"#. c #C30101",
"$. c #CC0202",
"%. c #D30102",
"&. c #DC0102",
"*. c #E30202",
"=. c #EC0102",
"-. c #F30001",
";. c #FE0202",
":. c #567883",
">. c #597984",
",. c #5C7E8A",
"<. c #667682",
"1. c #657883",
"2. c #6A7A85",
"3. c #6C7D89",
"4. c #6E818D",
"5. c #70818E",
"6. c #678E9B",
"7. c #738592",
"8. c #768996",
"9. c #778A98",
"0. c #7A8C9A",
"q. c #6D95A3",
"w. c #7F92A0",
"e. c #75A0AF",
"r. c #838687",
"t. c #9D9D9A",
"y. c #8295A4",
"u. c #8498A7",
"i. c #879BAA",
"p. c #899DAC",
"a. c #8AAFBC",
"s. c #A2A3A1",
"d. c #AFB0AD",
"f. c #BFC0BD",
"g. c #82B3C4",
"h. c #85B7C8",
"j. c #8ABDCE",
"k. c #8DC3D5",
"l. c #90C7D9",
"z. c #94C9DA",
"x. c #A2CFDE",
"c. c #B3DAE6",
"v. c #BEDEE9",
"b. c #C4C4C2",
"n. c #C9CAC7",
"m. c #D5D6D2",
"M. c #D3E8EF",
"N. c #D9EDF2",
"B. c #EFF0EC",
"V. c #F1F1EE",
"C. c #E6F2F5",
"Z. c #E8F3F6",
"A. c #F9FAF6",
"S. c white",
/* pixels */
"i.i.i.i.i.i.i.i.i.i.i.i.i.i.i.i.p.p.i.i.p.p.p.p.i.i.i.i.i.i.i.i.i.i.i.i.i.i.i.i.",
"i.i.i.i.i.i.i.i.i.i.i.i.i.i.p.u.2.L y V L / 3.i.p.i.i.i.i.i.i.i.i.i.i.i.i.i.i.i.",
"i.i.i.i.i.i.i.i.i.i.i.p.i.p.0.S O @ > > @ X % V 3.p.i.i.i.i.i.i.i.i.i.i.i.i.i.i.",
"i.i.i.i.i.i.i.i.i.i.i.p.p.0.t + n &.=.=.&.#.n ; % ^ i.i.i.i.i.i.i.i.i.i.i.i.i.i.",
"i.i.i.i.i.i.i.i.i.i.p.p.p.S + o.;.;.;.;.;.;.;.%.f O ) p.i.i.i.i.i.i.i.i.i.i.i.i.",
"i.i.i.i.i.i.i.i.p.8.{ { ^ O v ;.;.;.;.;.;.;.;.;.=.d 2 9.p.i.i.i.i.i.i.i.i.i.i.i.",
"i.i.i.i.i.i.i.p.[ = X X   ; +.;.;.;.-.*.&.%.$.$.*.%.; U p.i.i.i.i.i.i.i.i.i.i.i.",
"i.i.i.i.i.p.p.0.4 a X.X.@ d &.;.&.b > ; @ # . + ; c s 2 0.p.i.i.i.i.i.i.i.i.i.i.",
"i.i.i.i.i.i.p.{ # %.;.$.@ n =.=.s % C T _ >.,.>.T 2   % 7.p.i.i.i.i.i.i.i.i.i.i.",
"i.i.i.i.i.i.p.R , =.;.X.@ X.-.o.X _ k.l.z.c.N.N.M.a.B o ` p.i.i.i.i.i.i.i.p.p.i.",
"i.i.i.i.i.i.p.L , %.%.f > O.;.n 2 ,.k.k.z.C.S.S.S.v.g.u 9 0.p.i.i.i.i.p.i.5.0.p.",
"i.i.i.i.i.i.i.V , X...; s +.;.f 5 _ h.l.l.v.Z.Z.N.x.l.q.* <.p.i.i.i.i.p.5.0 S y.",
"i.i.i.i.i.i.y.4 d X.| + v $.;.d e ! 6.k.z.l.z.z.l.l.l.g.2 / p.i.i.i.i.u.P t.P 5.",
"i.i.p.i.i.p.7.& b X.v @ | $.;.f 6 ! ! 6.h.j.k.k.j.g.e.>.2 R p.i.i.i.p.{ ' V.~ { ",
"i.i.i.i.i.p.2.# | X.h ;  .&.;.b = T Q Q ( >.,.,.:.( ! T % E p.i.i.i.y.Y f.V.K { ",
"i.i.i.i.i.p.) @  .X., > X.&.;.O.X A ! Q Q ! T T ! T T V $ 2.p.i.i.p.4.} A.f.0 3.",
"i.i.i.i.i.p.W @  ...: a  .o.;.*., % F ! ! ! ! T T G 6   e y.i.i.p.i.^ n.V.' { u.",
"i.i.i.i.i.p.L : X...; f | v #.| #.: o 5 B D D B 2 o @ ; V u.p.p.p.5.r.A.d.y y.i.",
"i.i.p.p.i.7.t ; c n @ v | , d : &.$.b ; X X X + > b $.v V <.I ` 5.] m.B.' 3.i.i.",
"i.i.p.9.P z f b c > + b  .@   . d O.;.*.@.O.+.$.=.;.;.v e w ; o - p b.s.S y.i.i.",
"i.p.7.q v X.X.X.X.c + n X.;       d -.$.;.;.;.;.$.$.&.: : #.&...1 p t 0 4.p.i.i.",
"i.u.J b X.X...X.X. .: n X.a       @ n : #.;.+.&.a v d   b ;.;.;.| 9 K 7 R p.i.i.",
"p.<.h X.X.....X.X. .>  .X. .c           n +.: b   +     b #.%.;.n o 7 i r y.i.i.",
"y.N | X.X.X...X.X.n :  .X.X.#.,         : ,   @     + + f c +.-.n X., 8 S i.i.i.",
"<.g X.X...X.....X.s ;  .X.X.#.o.                  , c @ d f =.+.o.;.o.^ w.i.i.i.",
"<.j .. .X.X.X...v   : ....X.o.&.| ;           # + n n @ , f =.n @.%.m 3.p.i.i.i.",
"y.J c s c  .X.b : % > X.......o.&.O.@ v f   ; +.|  .c @ , a c X.@.s P i.i.i.i.i.",
"p.9.M f h d  . .k e :  .X.X.X.X.X.o.b $.*.b O.%.o.X.s + s | n &.-.x 3.p.i.i.i.i.",
"i.p.7.H M 1 f l / W X , | X.X.X.X.v ;  .O.O.o.X.X.| @ 3 < | =...h W i.i.i.i.i.i.",
"i.i.p.i.w.7./ 4.p.u.E O m X...X.X.| + v X.X.X.X.X. .; Z 1.x $.v U i.i.i.i.i.i.i.",
"i.i.i.i.i.p.p.p.u.p.y.2 c X...X.X...; d  .X.X.X.X.X.f - 8.) N E y.p.i.i.i.i.i.i.",
"i.i.i.i.i.i.p.p.u.u.y.5 f X.X.X.X.X.: + , ..X.X.X.X.| + ) p.u.i.i.i.i.i.i.i.i.i.",
"i.i.i.i.i.i.i.i.i.i.y.9 d X.X.X.X...; * + | X.X.X.X. .; R p.i.i.i.i.i.i.i.i.i.i.",
"i.i.i.i.i.i.i.i.i.i.y.r s X.X.X.X.| @ R 2 c X.X.X.X.X.: L p.i.i.i.i.i.i.i.i.i.i.",
"i.i.i.i.i.i.i.i.i.i.i.V , X.X.X.X.f & 5.B a X.X.X.X...; Y p.i.i.i.i.i.i.i.i.i.i.",
"i.i.i.i.i.i.i.i.i.i.p.^ X s b b d + Z p.R @  .X.X.X.b X [ p.i.i.i.i.i.i.i.i.i.p.",
"i.i.i.i.i.i.i.i.i.i.p.w.Z o   . O V 0.p.3.# c X. .c @ r y.i.i.i.i.i.i.i.i.i.i.i.",
"i.i.p.i.i.i.i.i.i.i.i.p.y.2./ / 2.u.p.p.i.V   ; + X e 7.i.i.i.i.i.i.i.i.i.i.i.i.",
"i.i.i.i.i.i.i.i.i.i.i.i.p.p.p.p.p.i.i.i.i.9.F 9 V / w.p.i.i.i.i.i.i.i.i.i.i.i.i.",
"i.i.i.i.i.i.i.i.i.i.i.i.i.i.i.p.i.i.i.i.i.p.i.y.i.p.p.i.i.i.i.i.i.i.i.i.i.i.i.i."
};
