/* XPM */
static char *_3390_c920b2a75a2666852397792c32920cf927a001512c7a0dfe2f4e5ed1a0d5e7f9[] = {
/* columns rows colors chars-per-pixel */
"40 40 146 2 ",
"   c #000B0B",
".  c #001206",
"X  c #00120A",
"o  c #00141F",
"O  c #000E27",
"+  c #030D2B",
"@  c #011426",
"#  c #011826",
"$  c #01142A",
"%  c #08132F",
"&  c #021A2C",
"*  c #021434",
"=  c #0A1531",
"-  c #011B34",
";  c #03153B",
":  c #0A1339",
">  c #031939",
",  c #002134",
"<  c #041543",
"1  c #021947",
"2  c #04154A",
"3  c #08144D",
"4  c #071651",
"5  c #0A1555",
"6  c #071A52",
"7  c #0C1E56",
"8  c #0C145C",
"9  c #00245E",
"0  c #0E1664",
"q  c #041F64",
"w  c #081F65",
"e  c #081E6A",
"r  c #111465",
"t  c #12166B",
"y  c #12186B",
"u  c #151673",
"i  c #141872",
"p  c #002664",
"a  c #002966",
"s  c #01246B",
"d  c #00286A",
"f  c #09286B",
"g  c #012473",
"h  c #05257B",
"j  c #0B277D",
"k  c #062A78",
"l  c #0B297A",
"z  c #072684",
"x  c #092585",
"c  c #052389",
"v  c #0D258D",
"b  c #0B288C",
"n  c #00328D",
"m  c #0F2791",
"M  c #132395",
"N  c #192095",
"B  c #15269B",
"V  c #19259E",
"C  c #003190",
"Z  c #1B22A3",
"A  c #1C22A8",
"S  c #2223AE",
"D  c #2523B4",
"F  c #2824B6",
"G  c #2722BA",
"H  c #2924BA",
"J  c #1665A9",
"K  c #1961AE",
"L  c #1C69AF",
"P  c #1662B0",
"I  c #1A66B2",
"U  c #1B68B3",
"Y  c #1E65BA",
"T  c #1E6AB9",
"R  c #1D70BC",
"E  c #2266B5",
"W  c #2265BC",
"Q  c #2964BE",
"!  c #2269BB",
"~  c #1E74C1",
"^  c #2765C5",
"/  c #2B66C2",
"(  c #2669C2",
")  c #2463CA",
"_  c #2D66CB",
"`  c #2969CA",
"'  c #3264CE",
"]  c #2276C6",
"[  c #277AC5",
"{  c #2474CB",
"}  c #257ACA",
"|  c #2D65D1",
" . c #2F6AD2",
".. c #3367D2",
"X. c #3967D6",
"o. c #3569D5",
"O. c #3868D7",
"+. c #3663D8",
"@. c #3B65DD",
"#. c #3B69DB",
"$. c #3F65E2",
"%. c #406ADA",
"&. c #4566E4",
"*. c #4965E6",
"=. c #4865E9",
"-. c #4F92A3",
";. c #4B92AE",
":. c #5091A5",
">. c #5599A6",
",. c #5598A9",
"<. c #4E93B4",
"1. c #5292B1",
"2. c #3E8ECB",
"3. c #438FCD",
"4. c #4BBEED",
"5. c #5DBEF1",
"6. c #51BEF9",
"7. c #60BFED",
"8. c #47C2EE",
"9. c #4EC4EB",
"0. c #4ECAEA",
"q. c #52C5EC",
"w. c #5BC5EC",
"e. c #55C9EE",
"r. c #4EC1F4",
"t. c #4FC9F2",
"y. c #54C4F2",
"u. c #5CC4F2",
"i. c #56CBF7",
"p. c #51C4F8",
"a. c #5EC6FB",
"s. c #61C7ED",
"d. c #62D4EE",
"f. c #62C3F5",
"g. c #6BC3F7",
"h. c #61CFF0",
"j. c #66C4F9",
"k. c #6CC4FD",
"l. c #64CCFB",
"z. c #74C5FD",
"x. c #79C5FE",
"c. c #77C8FF",
"v. c #62D5F2",
"b. c #69D7F2",
"n. c #66D5FF",
"m. c #6DD3FF",
/* pixels */
"  <.n.w.7.a.u.7.7.x.x.x.x.x.x.z.5.5.z.5.y.u.y.q.q.9.9.9.9.9.9.9.4.9.p.6.r.h.-.X ",
":.2.] E / ) | #.@.&.=.=.=.=.*.&.%.X._ _ ( W Y Y I I U K K J U U E J P Y P ~ 2.1.",
"d.[ n h x c M N A S F H H H G S V M m c h g g s s s s s s s s g w p a s g n ] l.",
"0.U f 1 ; 2 7 3 0 t t u u u t r 0 0 5 3 2 < ; ; ; ; ; ; ; ; ; ; * - - $ < l I w.",
"y.E s > $ + * & > ; ; < < < ; ; ; ; * * $ $ $ + $ $ $ $ $ + $ $ * O $ @ ; j W y.",
"y.L p - & % O O & $ $ * $ $ & & $ & $ $ $ $ & $ $ $ $ & $ & $ $ * + = = 1 c ) 5.",
"0.J p $ + : % % $ $ @ $ $ $ $ $ @ @ @ o $ $ $ $ @ $ # $ # @ @ # % O + $ 2 v ..u.",
"i.K p : + * $ O & + O @ $ + + * @ O @ @ @ $ $ + @ $ $ $ $ @ @ @ @ % & $ 3 M ' w.",
"e.I s * @ $ @ o @ $ $ $ % & $ $ $ & & # $ $ $ $ $ $ $ $ $ $ $ $ + $ $ * 8 Z +.f.",
"e.I q * $ $ @ @ $ $ $ $ $ $ + $ $ $ $ $ $ $ $ $ + $ $ $ $ $ $ $ $ $ % ; 0 A @.g.",
"e.I s ; $ & @ $ @ + @ $ $ $ + $ $ $ @ $ $ $ $ $ @ $ $ $ $ $ $ $ @ $ * < e D &.z.",
"q.I s ; $ $ $ $ @ @ @ @ @ @ $ $ $ $ $ $ $ $ $ @ $ $ $ @ $ @ $ $ @ O * < u H *.x.",
"q.I s ; $ $ * + $ @ @ $ @ $ $ $ $ $ @ $ @ $ $ $ $ $ $ $ $ @ $ $ @ $ * 2 u H *.x.",
"q.E s ; $ $ $ $ @ $ @ $ $ $ $ $ $ $ $ $ $ $ $ $ $ $ @ $ $ $ $ $ $ $ * < u D *.x.",
"q.L s * $ $ $ $ $ $ $ $ $ $ $ $ $ $ $ $ $ $ $ $ $ @ $ $ $ $ $ # $ % + < t D &.c.",
"q.E p ; $ * $ & $ $ $ $ $ $ & $ $ $ $ @ $ $ @ $ $ $ $ $ $ $ & & $ $ * ; t S &.c.",
"u.T g ; $ $ @ $ $ @ $ $ $ $ $ $ @ $ $ $ $ $ $ @ $ $ $ $ $ $ $ $ $ @ $ < r S @.k.",
"w.! g ; % $ # $ $ $ $ $ $ $ @ $ $ $ $ @ $ @ $ $ $ $ $ $ @ $ $ $ + @ & ; 8 V o.k.",
"f.! h < $ # @ $ $ $ $ @ # $ $ $ $ @ $ $ $ $ @ $ $ $ $ @ $ $ $ # $ @ & * 8 N ' j.",
"f.( x 3 $ $ @ $ $ $ $ $ $ $ @ $ $ $ $ $ $ $ $ $ @ $ $ $ $ $ & & $ @ $ : 5 v _ f.",
"f.` b 3 * $ @ @ @ $ $ $ $ @ $ $ $ $ $ @ $ $ $ $ $ $ $ @ $ @ $ $ $ @ @ $ 3 x ^ u.",
"l...M 8 ; & @ + $ $ $ @ $ $ $ $ @ $ $ $ $ $ $ @ @ $ $ $ $ $ $ $ $ @ $ % 1 h E u.",
"k.O.V r : & @ $ $ $ $ $ $ $ $ $ $ $ $ $ $ $ $ $ $ $ $ $ $ $ $ $ $ @ $ $ < g T u.",
"z.#.Z r < $ $ $ $ @ $ $ @ $ $ $ $ $ @ $ $ @ $ $ $ $ $ $ $ $ $ $ $ @ @ $ < g T u.",
"c.&.S r : $ $ $ $ $ $ $ $ $ @ $ @ $ $ $ $ $ $ $ $ @ $ $ $ @ $ $ @ @ $ + ; g U q.",
"c.&.D t < - @ % $ $ $ $ $ @ $ $ $ $ $ @ $ $ @ $ $ $ $ $ $ $ $ $ $ $ $ $ > s U q.",
"c.*.D u < * # @ $ $ $ $ $ $ @ $ $ $ $ $ $ @ $ $ $ $ $ # $ $ $ $ $ $ $ $ > d U q.",
"x.*.D u < % @ @ $ $ $ $ $ $ $ $ $ $ $ $ $ $ @ $ $ $ $ $ $ $ $ $ $ $ $ @ > d U q.",
"x.&.D t ; $ @ @ $ $ $ $ $ @ $ $ @ $ $ $ $ $ $ $ $ @ $ $ @ $ $ + + $ $ $ - d U 0.",
"z.&.D t ; * @ @ $ $ $ $ $ $ + $ $ $ $ @ $ $ $ $ $ $ $ $ $ $ $ @ $ $ & $ * s U q.",
"g.%.A 0 ; $ $ % $ $ $ + $ $ $ $ # $ $ $ # & $ $ $ $ $ @ $ $ $ $ $ $ & $ ; s U e.",
"g.@.Z 8 * & $ % $ $ @ $ @ $ $ $ & $ $ $ $ $ $ $ $ $ $ $ $ $ $ $ # $ $ & ; g U e.",
"s.' M 6 & $ + @ + @ @ $ $ $ + $ * $ + $ @ O $ @ + $ $ $ + $ $ % $ + * * ; e K y.",
"e.` v 2 $ % $ $ @ @ $ $ @ $ $ $ & $ $ @ @ @ @ @ $ @ $ @ $ $ $ % + + + @ * a L q.",
"u.) b 1 & = + + # @ $ $ $ $ $ $ $ $ $ $ $ $ & $ $ $ $ * $ & $ @ * % $ & , a I r.",
"5.W h ; @ # $ * % @ @ @ @ @ @ @ # $ $ $ $ ; ; ; ; ; < < 1 ; - * * - # o * s W y.",
"u.E k ; & , - : > > ; * : * * * ; ; ; 2 3 5 8 r y y i u u i t 0 8 6 < * < g T e.",
"n.} n g f a 9 s s s s s s s a s s e g h x m B Z D F F G G F S A Z M x j j C [ b.",
";.2.T K E P J E K K P I J K I I Y I Y W ^  .#.X.$.&.=.=.=.&.$.@.@.| ) / W { 3.>.",
"X ,.v.8.p.p.r.4.q.q.q.q.9.9.9.9.y.y.y.u.f.g.5.k.z.c.c.c.c.c.k.g.u.l.j.5.u.m.1.. "
};
